<?xml version="1.0" encoding="utf-8"?>
<!-- Generator: Adobe Illustrator 17.1.0, SVG Export Plug-In . SVG Version: 6.00 Build 0)  -->
<!DOCTYPE svg PUBLIC "-//W3C//DTD SVG 1.1//EN" "http://www.w3.org/Graphics/SVG/1.1/DTD/svg11.dtd">
<svg version="1.1" id="Layer_1" xmlns="http://www.w3.org/2000/svg" xmlns:xlink="http://www.w3.org/1999/xlink" x="0px" y="0px"
	 viewBox="368.5 208.4 328.2 76" enable-background="new 368.5 208.4 328.2 76" xml:space="preserve">
<path fill="#A774AB" d="M693.9,247.4c-1.6,0.9-3.1,1.5-4.8,2.4c0,0.8-0.4,1.9-0.9,2.9c-3.7,4.6-10.3,6.6-18.2,7.6
	c-2.8,1.7-5.4,3-8.2,4.6c-5.4,3-10.5,6.1-15.8,8.7c-1.6,0.9-3.6,1.7-5.4,3c-1.6,1.8-3.3,2.7-4.9,2.8c0.4,1,0.4,1.8-0.4,2.7
	c-1.3,1.9-2.3,2.3-5.1,2.3c-3.2-0.2-5.7-2.1-5.6-5c-0.6-8.9,12-13.3,18.8-17.3c0.7-0.5,1.6-0.9,2.3-1.5c-4.9-0.1-9.3-0.4-13-0.4
	c-26.8,0.9-53.9,1.4-80.7,2.3c-54.7,1.4-110,3.4-165.7,3.2c-4.6,0-5.7-5.8-1.5-6c47.7-3.3,95.8-4.7,143.7-6.7
	c22.6-0.7,45-2,67.7-2.7c2.5-0.1,5.4-0.1,8.1-0.6c-0.3-0.2-0.3-0.2-0.8,0c-25.7-0.6-51.3-0.8-77-1.4c-50.3-1.1-102.3-0.2-153.7-5.2
	c-4.4-0.3-5.8-5.5-1.5-6c51.5-3.6,104.9-1.1,157.5-0.6c39.6,0.1,81.2-2.5,121.7,0.1c-16.8-4.9-33.4-10.2-49-17.1
	c-7.6-3.4-5.2-12.6,2.8-11.1c29.2,5.9,58.8,18.1,87.3,27.4C697.4,237.8,698.2,245.2,693.9,247.4z"/>
</svg>
