<?xml version="1.0" encoding="utf-8"?>
<!-- Generator: Adobe Illustrator 17.1.0, SVG Export Plug-In . SVG Version: 6.00 Build 0)  -->
<!DOCTYPE svg PUBLIC "-//W3C//DTD SVG 1.1//EN" "http://www.w3.org/Graphics/SVG/1.1/DTD/svg11.dtd">
<svg version="1.1" id="Layer_1" xmlns="http://www.w3.org/2000/svg" xmlns:xlink="http://www.w3.org/1999/xlink" x="0px" y="0px"
	 viewBox="-3.2 67.8 1025.1 392.6" enable-background="new -3.2 67.8 1025.1 392.6" xml:space="preserve">
<path fill="#A774AB" d="M-0.1,435.4c2.8-3.1,5.7-5.4,8.5-8.4c-0.7-1.8-0.4-4.3-0.1-6.8C13,407.8,25.9,399,42,391.3
	c4.8-5.5,9.6-10.1,14.3-15.5c9.6-10.1,18.3-20.2,27.8-29.4c2.8-3.1,6.6-6.1,9.6-10.1c2.2-4.9,5.1-8,8.6-9.3c-1.5-1.8-2.1-3.6-1-6.1
	c1.4-5,3.2-6.5,9.4-8.3c7-1.8,13.6,0.6,15.4,6.7c7.4,18.6-16.6,36.5-28.2,49.7c-1,1.6-2.8,3.1-3.9,4.7c10.5-3.2,20.2-5.5,28.1-8.1
	c56.6-20.4,113.9-39.9,170.5-60.3C408.3,264.9,847.3,106,966,68.4c9.7-3.3,16.1,8.5,7.2,11.8C873.8,119.9,450,272.7,349.2,309.7
	c-47.7,17.1-94.7,35.1-142.5,52.2c-5.3,2-11.4,3.9-16.9,6.7c0.8,0.1,0.8,0.1,1.8-0.7c55.3-16.3,109.9-33.5,165.1-49.7
	c108-32,540.5-186.5,653.7-211.1c9.6-2.4,16.2,7.7,7.2,11.8C910.1,162,472.4,310,359.9,344.9c-84.5,26.8-171.4,61-259.6,83.2
	c39.2-0.9,78.3-1.1,116.2,2.9c18.5,2,19.6,23.4,1.6,25.6c-66.3,7.5-137.9,1.6-205.1,1.3C-0.7,458.2-7.7,443-0.1,435.4z"/>
</svg>
