<?xml version="1.0" encoding="utf-8"?>
<!-- Generator: Adobe Illustrator 17.1.0, SVG Export Plug-In . SVG Version: 6.00 Build 0)  -->
<!DOCTYPE svg PUBLIC "-//W3C//DTD SVG 1.1//EN" "http://www.w3.org/Graphics/SVG/1.1/DTD/svg11.dtd">
<svg version="1.1" id="Layer_1" xmlns="http://www.w3.org/2000/svg" xmlns:xlink="http://www.w3.org/1999/xlink" x="0px" y="0px"
	 viewBox="0 0 20.2 86.9" enable-background="new 0 0 20.2 86.9" xml:space="preserve">
<path fill="#A774AB" d="M9.5,86.1c-0.2-0.4-0.4-0.8-0.6-1.3c-0.3,0-0.5-0.1-0.8-0.3c-1.2-1-1.7-2.8-1.9-4.8
	c-0.4-0.7-0.8-1.4-1.2-2.1c-0.8-1.4-1.5-2.8-2.3-4.2C2.5,72.9,2.2,72.4,2,72c-0.5-0.4-0.8-0.9-0.7-1.3c-0.3,0.1-0.5,0.1-0.7-0.1
	c-0.5-0.4-0.6-0.6-0.5-1.4c0.1-0.9,0.6-1.4,1.4-1.5c2.3-0.1,3.4,3.3,4.5,5.1C6,73,6.1,73.2,6.2,73.4c0.1-1.3,0.2-2.5,0.1-3.5
	c-0.1-7.1-0.1-14.3-0.1-21.4c-0.1-14.6-0.4-29.2,0-43.9c0-1.2,1.6-1.5,1.6-0.3c0.6,12.6,0.8,25.4,1,38.1c0.1,6,0.3,12,0.4,18
	c0,0.7,0,1.4,0,2.2c0-0.1,0-0.1,0-0.2c0.3-6.8,0.5-13.6,0.8-20.4c0.5-13.5,0.6-27.2,2.1-40.9c0.1-1.1,1.5-1.5,1.6-0.3
	c0.7,13.6-0.3,27.8-0.7,41.7c-0.3,10.5,0.2,21.5-0.6,32.3c1.4-4.4,2.9-8.8,4.8-12.9c0.9-2,3.4-1.3,2.9,0.8c-1.7,7.7-5.1,15.5-7.7,23
	C12,87.1,10,87.3,9.5,86.1z"/>
</svg>
