<?xml version="1.0" encoding="utf-8"?>
<!-- Generator: Adobe Illustrator 17.1.0, SVG Export Plug-In . SVG Version: 6.00 Build 0)  -->
<!DOCTYPE svg PUBLIC "-//W3C//DTD SVG 1.1//EN" "http://www.w3.org/Graphics/SVG/1.1/DTD/svg11.dtd">
<svg version="1.1" id="Layer_1" xmlns="http://www.w3.org/2000/svg" xmlns:xlink="http://www.w3.org/1999/xlink" x="0px" y="0px"
	 viewBox="0 0 40 80" enable-background="new 0 0 40 80" xml:space="preserve">
<path fill="#A774AB" d="M37.5,0.3c-0.4,0.3-0.7,0.6-1.1,0.9c-0.2-0.1-0.5-0.1-0.8-0.1c-1.5,0.4-2.7,1.8-3.8,3.6
	c-0.7,0.5-1.3,1-2,1.5C28.6,7.1,27.3,8,26,9c-0.4,0.3-0.8,0.7-1.3,1c-0.6,0.2-1,0.5-1.2,0.9c-0.2-0.2-0.4-0.3-0.7-0.2
	c-0.6,0.1-0.8,0.3-1.1,1c-0.3,0.8-0.1,1.6,0.6,1.9c2.1,1.1,4.5-1.5,6.2-2.7c0.2-0.1,0.4-0.3,0.6-0.4c-0.5,1.2-0.9,2.3-1.3,3.2
	c-3.1,6.4-6.1,12.9-9.2,19.3C12.4,46.2,6,59.4,0.1,72.9c-0.5,1.1,0.8,2,1.3,1c5.9-11.2,11.4-22.7,17-34.1c2.6-5.4,5.3-10.7,7.9-16.1
	c0.3-0.6,0.6-1.3,1-1.9c0,0.1,0,0.1-0.1,0.2c-2.6,6.3-5.3,12.5-7.9,18.8c-5.2,12.5-11,24.9-15.3,37.9c-0.4,1.1,0.7,2,1.3,1
	c6.4-12.1,11.5-25.3,17-38.1c4.2-9.6,9.3-19.4,13-29.5c-0.6,4.6-1.1,9.2-1.1,13.7c0,2.2,2.5,2.6,3,0.5C38.9,18.5,39.2,10,40,2.1
	C40.2,0.5,38.5-0.5,37.5,0.3z"/>
</svg>
