<?xml version="1.0" encoding="utf-8"?>
<!-- Generator: Adobe Illustrator 17.1.0, SVG Export Plug-In . SVG Version: 6.00 Build 0)  -->
<!DOCTYPE svg PUBLIC "-//W3C//DTD SVG 1.1//EN" "http://www.w3.org/Graphics/SVG/1.1/DTD/svg11.dtd">
<svg version="1.1" id="Layer_1" xmlns="http://www.w3.org/2000/svg" xmlns:xlink="http://www.w3.org/1999/xlink" x="0px" y="0px"
	 viewBox="0 210.7 960.1 138.7" enable-background="new 0 210.7 960.1 138.7" xml:space="preserve">
<g>
	<path fill="#A774AB" d="M960,215.7c-17.8,40.8-56.1,66.6-147.5,91.4c-92.4,25-215.6,39.8-346.7,42c-117.7,1.9-222.7-9-303.7-31.6
		C88.2,297,36,267.7,10.9,232.9c-0.7-0.8-0.5-1.9,0.3-2.4l0,0c0.8-0.5,1.9-0.3,2.4,0.3c42.3,58.6,182.8,119.3,452.1,114.8
		c131-2.2,253.8-17,345.9-41.8c88.5-24,128.3-48.8,145.1-88.2c0.3-0.8,0.7-1.7,1.7-1.7l0,0C959.2,213.9,960.3,214.7,960,215.7z"/>
	<path fill="#A774AB" d="M29.7,231.2c-0.2,0-0.5,0-0.7,0s-0.5,0-0.7,0c-8.8-3.1-16.6-7.1-24-13.3c-2-1.7-5.3,0.5-4.2,3.1
		c1.7,4.1,3.1,8.2,4.1,12.2c0.5,2.4,1,4.6,1.5,7c0.7,3.4,5.9,3.1,5.4-0.5c-0.5-2.7-1-5.4-1.7-8c7.3,8.7,16,15.3,24.8,24.1
		c1.4,1.5,2.5,0.3,1.4-1.4c-6.1-8.3-14.3-14.6-20.6-22.8c4.4,2.2,8.8,4.1,13.6,5.3c1.2,0.3,2.7-0.5,3.1-1.5c0-0.2,0.2-0.3,0.2-0.5
		C32.4,233.4,31.8,231.2,29.7,231.2z"/>
	<path fill="#A774AB" d="M455.6,339.9c130.8-2,266-18.9,358.1-43.7c88.5-24,123.7-53.2,129.4-83.9c0.2-1,0.8-1.7,1.7-1.7l0,0
		c0.8,0,1.9,0.8,1.7,1.7c-6.8,34.1-40.6,62.3-132,87.1c-92.2,25-227.6,41.8-359,43.8V339.9z"/>
	<path fill="#A774AB" d="M152.4,308c-74.6-21.6-126.7-52-151-87.8l2.7-1.9c40.4,59.6,180.2,122.8,451.5,121.6v3.4
		C338.1,343.8,233.1,331.6,152.4,308z"/>
</g>
</svg>
