<?xml version="1.0" encoding="utf-8"?>
<!-- Generator: Adobe Illustrator 17.1.0, SVG Export Plug-In . SVG Version: 6.00 Build 0)  -->
<!DOCTYPE svg PUBLIC "-//W3C//DTD SVG 1.1//EN" "http://www.w3.org/Graphics/SVG/1.1/DTD/svg11.dtd">
<svg version="1.1" id="Layer_1" xmlns="http://www.w3.org/2000/svg" xmlns:xlink="http://www.w3.org/1999/xlink" x="0px" y="0px"
	 viewBox="0 0 49.9 43" enable-background="new 0 0 49.9 43" xml:space="preserve">
<g>
	<g>
		<polygon fill="#BC4A7E" points="31.1,43 0,43 0,12 12.3,0 31.1,0 		"/>
		<polygon fill="#ECC9D3" points="0,12 12.3,0 12.3,12 		"/>
		<g>
			<rect x="6.9" y="19.2" fill="#FFFFFF" width="17.5" height="2"/>
			<rect x="6.9" y="25.7" fill="#FFFFFF" width="17.5" height="2"/>
			<rect x="6.9" y="32.3" fill="#FFFFFF" width="17.5" height="2"/>
		</g>
	</g>
	<g>
		<g>
			<polygon fill="#E2CAA3" points="29,29.3 28.1,38.6 36.5,35.1 			"/>
			<polygon fill="#35414F" points="28.1,38.6 28.3,36.2 30.3,37.7 			"/>
			<polygon fill="#85C3B8" points="30.3,31.1 28.9,31 29,29.3 42.4,12.3 44.1,13.5 			"/>
			<polygon fill="#407062" points="34.3,34.3 34.7,35.9 36.5,35.1 49.9,18.1 48.2,16.6 			"/>
			<polygon fill="#61AB9C" points="30.3,31.1 31.4,33.7 34.3,34.3 48.2,16.6 44.1,13.5 			"/>
		</g>
	</g>
</g>
</svg>
