<?xml version="1.0" encoding="utf-8"?>
<!-- Generator: Adobe Illustrator 17.1.0, SVG Export Plug-In . SVG Version: 6.00 Build 0)  -->
<!DOCTYPE svg PUBLIC "-//W3C//DTD SVG 1.1//EN" "http://www.w3.org/Graphics/SVG/1.1/DTD/svg11.dtd">
<svg version="1.1" id="Layer_1" xmlns="http://www.w3.org/2000/svg" xmlns:xlink="http://www.w3.org/1999/xlink" x="0px" y="0px"
	 viewBox="0 0 189.2 43.3" enable-background="new 0 0 189.2 43.3" xml:space="preserve">
<g>
	<g>
		<path fill="#9B9B9B" d="M4.4,27.5"/>
	</g>
	<g>
		<path fill="#9B9B9B" d="M2.8,38.5"/>
	</g>
	<path fill="#9B9B9B" d="M19.6,22.4"/>
	<path fill="#9B9B9B" d="M4.4,27.5"/>
	<path fill="#9B9B9B" d="M22,22.6"/>
	<path fill="#9B9B9B" d="M13.9,39"/>
</g>
<path fill="none" stroke="#000000" stroke-miterlimit="10" d="M18.9,25.3"/>
<path fill="none" stroke="#000000" stroke-linecap="round" stroke-linejoin="round" stroke-miterlimit="10" d="M30.5,13.1"/>
<path fill="none" d="M32.7,7.9"/>
<path fill="none" stroke="#000000" stroke-miterlimit="10" d="M36.8,16.6"/>
<path fill="none" stroke="#000000" stroke-miterlimit="10" d="M37.5,15.6"/>
<path fill="none" stroke="#000000" stroke-miterlimit="10" d="M36.8,16.6"/>
<path fill="none" d="M32.7,7.9"/>
<path fill="none" stroke="#000000" stroke-miterlimit="10" d="M43.9,16.9"/>
<path fill="none" stroke="#000000" stroke-miterlimit="10" d="M24.2,20.5"/>
<path fill="none" stroke="#000000" stroke-miterlimit="10" d="M20.5,22.1"/>
<path fill="none" d="M38.2,12"/>
<path fill="none" stroke="#000000" stroke-miterlimit="10" d="M24.4,20.4"/>
<path fill="none" stroke="#000000" stroke-miterlimit="10" d="M20.6,22.1"/>
<path fill="none" stroke="#000000" stroke-linecap="round" stroke-linejoin="round" stroke-miterlimit="10" d="M30.4,13.6"/>
<path fill="none" d="M39.1,11.6"/>
<path fill="none" stroke="#000000" stroke-miterlimit="10" d="M20.6,22"/>
<path fill="none" d="M37.9,10"/>
<path fill="none" stroke="#000000" stroke-linecap="round" stroke-linejoin="round" stroke-miterlimit="10" d="M38.4,13.3"/>
<path fill="none" d="M38.1,11.2"/>
<g>
	<path fill="#9B9B9B" d="M11,38.3"/>
</g>
<g>
	<path fill="#9B9B9B" d="M16.2,23.8"/>
	<path fill="none" stroke="#DD7B63" stroke-linecap="round" stroke-linejoin="round" stroke-miterlimit="10" d="M16.2,23.8"/>
</g>
<g>
	<path fill="#9B9B9B" d="M3.5,26.6"/>
</g>
<path fill="#9B9B9B" d="M10.4,37.3"/>
<path fill="none" stroke="#000000" stroke-miterlimit="10" d="M22,20.3"/>
<path fill="none" stroke="#000000" stroke-miterlimit="10" d="M27.8,26.1"/>
<path fill="none" stroke="#000000" stroke-miterlimit="10" d="M18.5,21.9"/>
<path fill="#9B9B9B" d="M3.2,26.9"/>
<path fill="none" stroke="#000000" stroke-miterlimit="10" d="M18.5,21.9"/>
<path fill="#9B9B9B" d="M5.7,33.6"/>
<path fill="none" stroke="#000000" stroke-miterlimit="10" d="M18,38.1"/>
<path fill="#9B9B9B" d="M11.3,38.2"/>
<path fill="#9B9B9B" d="M1.2,30.2"/>
<path fill="#9B9B9B" d="M3.5,26.6"/>
<path fill="none" stroke="#000000" stroke-miterlimit="10" d="M18.5,21.9"/>
<path fill="#9B9B9B" d="M3.5,26.6"/>
<path fill="none" stroke="#000000" stroke-miterlimit="10" d="M18.5,21.9"/>
<path fill="#9B9B9B" d="M5.7,33.6"/>
<path fill="none" stroke="#000000" stroke-miterlimit="10" d="M27.2,26.3"/>
<circle fill="#DD7B63" cx="12" cy="29.5" r="3"/>
<circle fill="#8DBBD1" cx="31.8" cy="10.4" r="3"/>
<g>
	<path fill="#DD7B63" stroke="#DD7B63" stroke-linecap="round" stroke-linejoin="round" stroke-miterlimit="10" d="M13.9,39
		C-6.9,45.2-2,19.3,18.5,21.9c-25.9,8.5,1.4,23,3.5-1.7C24.9,27.2,21.3,35.6,13.9,39z"/>
	<path fill="#DD7B63" stroke="#DD7B63" stroke-linecap="round" stroke-linejoin="round" stroke-miterlimit="10" d="M22,20.3
		C22,20.3,22,20.2,22,20.3"/>
</g>
<g>
	<path fill="#8DBBD1" stroke="#8DBBD1" stroke-linecap="round" stroke-linejoin="round" stroke-miterlimit="10" d="M30.1,1.5
		C50.9-4.7,46,21.2,25.5,18.5c25.9-8.5-1.4-23-3.5,1.7C19.1,13.3,22.7,4.9,30.1,1.5z"/>
	<path fill="#8DBBD1" stroke="#8DBBD1" stroke-linecap="round" stroke-linejoin="round" stroke-miterlimit="10" d="M22,20.2
		C22,20.2,22,20.2,22,20.2"/>
</g>
<text transform="matrix(1 0 0 1 23.7894 37.2637)" fill="#4B7E59" font-family="'CooperBlack'" font-size="23.9863">KnacksGifter</text>
<path fill="none" stroke="#000000" stroke-miterlimit="10" d="M38.9,201.3"/>
</svg>
