<?xml version="1.0" encoding="utf-8"?>
<!-- Generator: Adobe Illustrator 17.1.0, SVG Export Plug-In . SVG Version: 6.00 Build 0)  -->
<!DOCTYPE svg PUBLIC "-//W3C//DTD SVG 1.1//EN" "http://www.w3.org/Graphics/SVG/1.1/DTD/svg11.dtd">
<svg version="1.1" id="Layer_1" xmlns="http://www.w3.org/2000/svg" xmlns:xlink="http://www.w3.org/1999/xlink" x="0px" y="0px"
	 viewBox="0 0 42.6 57" enable-background="new 0 0 42.6 57" xml:space="preserve">
<g>
	<path fill="#6FB073" d="M12.4,41.4c2.7-0.5,4.6-1.3,6-3.7c0.5-0.9,1.2-2,1.1-3.1c-0.1-1.2,0.3-2.3,0.2-3.4c0-0.4-0.5-0.7-0.8-0.4
		C13.3,35.2,11.4,44,3.1,44.7c-0.7,0.1-0.9,1.6-0.1,1.5C6.7,45.9,12.2,41.5,12.4,41.4z M18.4,33c-0.1,0.5-0.2,1-0.1,1.7
		c0.4,1.5-1.9,3.9-3.1,4.5c-0.6,0.3-1.4,0.5-2.1,0.6c0,0,0,0,0.1-0.1C14.9,37.6,16.5,34.9,18.4,33z"/>
	<path fill="#6FB073" d="M16.5,43.1c4.4-2.6,5.4-6.9,6-11.7c0.5-3.7-2.8-4.4-5.4-2.2c-4.9,4.1-8,11.9-14.5,13.6
		c-0.7,0.2-0.9,1.7,0,1.5c3-0.8,5.6-3.1,7.6-5.4c1.2-1.3,2.2-2.9,3.3-4.3c0.8-1,1.7-1.9,2.6-2.9c1-1,5.7-3.8,5.2,0
		c-0.7,4.9-2.3,9.4-7.4,11.2c-3.3,1.2-6,3.4-9.4,4.6c-0.7,0.2-0.8,1.8,0,1.5c1.9-0.7,3.9-1.5,5.6-2.6C12.2,45,14.4,44.4,16.5,43.1z"
		/>
	<path fill="#6FB073" d="M2.8,40.9c3.4-1.4,4.9-4.4,6.3-7.6c1.9-4.4,8-12.2,14.2-8.6c5.7,3.3-0.1,14.1-3.4,17.6
		c-2.7,2.9-6.2,3.6-9.6,5.2c-0.9,0.4,0.3,1.3,0.9,1c5-2.3,9.3-3.5,12.3-8.6c2.6-4.4,6.2-11,1.9-15.2c-3.7-3.6-8.5-2-12.3,0.8
		c-1,0.7-1.9,1.5-2.8,2.5c0.1-0.1,0.8-3.1,3.8-4.6c2.9-1.5,7.3-2.7,10.3-1c5.2,2.9,4.7,9.4,2.4,13.9c-0.4,0.7,0.6,1.7,1,0.8
		c3-5.7,2.6-13-3.7-16.4c-3.1-1.7-8.4,0.3-11.2,1.8c-2,1.1-4,5.1-4.1,5.1c-1.3,1.5-2.5,3-3.7,4.6c-0.9,1.2-1.7,2.3-2.8,3.2
		c-0.9,0.8-1.6,1.5-2,2.6c-0.3,0.7,1.2,1.1,1.5,0.4c0.6-1.4,1.9-2.2,2.9-3.2c0.8-0.8,1.4-1.8,2.1-2.7c0.5-0.7,1.1-1.4,1.7-2.1
		c0,0.1,0.1,0.2,0.1,0.3c-0.1,0.2-0.2,0.3-0.2,0.5c-1.5,3.5-2.4,7.4-6.4,9C1,40.2,2.1,41.2,2.8,40.9z"/>
	<path fill="#6FB073" d="M10.7,31.3c-0.5,0.5-0.1,2,0.6,1.4c1.5-1.4,3-2.7,4.5-4c1.7-1.4,3.3-2.5,5.5-1.6c0.8,0.3,1-1.2,0.3-1.5
		C17.4,23.8,13.4,28.7,10.7,31.3z"/>
	<path fill="#6FB073" d="M22.7,27.8C22.7,27.8,22.7,27.8,22.7,27.8C22.7,27.8,22.7,27.8,22.7,27.8c0.1,0.1,0.1,0.1,0.1,0.2
		c0.1,0.2,0.3,0.4,0.4,0.6c0.3,0.6,0.5,1.1,0.3,1.7c-0.6,2.3-0.5,2.7-0.1,2.8c0.7,0.2,1.1-2.2,1.3-2.5c0.6-1.3,0-2.8-0.9-3.9
		C23.3,26.2,22.2,27.2,22.7,27.8C22.7,27.8,22.7,27.8,22.7,27.8C22.7,27.8,22.7,27.8,22.7,27.8z"/>
	<path fill="#6FB073" d="M18.6,48.7c0.1,0,0.1-0.1,0.2-0.1C29,50.2,35.4,29.7,30.3,22.9c-2.9-3.9-6.3-5.8-10.3-5.8
		c2.8-1.3,5.8-0.4,8.5,1.4c4.9,3.3,7.2,12,5.2,17.4c-0.3,0.9,0.8,1.2,1.1,0.3c2.2-6-0.2-14.4-4.9-18.5c-3.5-3.1-8.5-4-12.2-0.7
		c-0.1,0.1-0.1,0.2-0.2,0.3c-1,0.2-2,0.4-3.1,0.8C7.1,20.5,5.8,28.8,0.4,33c-0.7,0.5-0.3,1.7,0.5,1.1c6.3-4.9,7.2-13.7,16.4-15.5
		c19.4-3.8,14.4,27.3,3.5,28.6c2.6-2,4.7-5.1,5.9-8c0.4-0.9-0.7-1.4-1.1-0.5c-1.9,4.5-5.4,8-10,9.6c-3.2,1.1-6.7,0.5-9.8,1.8
		c-0.7,0.3-0.6,1.7,0.3,1.3c2-0.9,4.3-0.6,6.5-0.9C14.7,50.3,16.7,49.6,18.6,48.7z"/>
	<path fill="#6FB073" d="M13.6,52.9c0.8-0.3,0.8-1.5-0.2-1.2c-1.6,0.6-3.4,0.5-5,1.1c-0.8,0.3-0.8,1.5,0.2,1.2
		c0.8-0.3,1.7-0.3,2.5-0.4C11.9,53.5,12.8,53.2,13.6,52.9z"/>
	<path fill="#6FB073" d="M15.6,54.2c3.4,1,7.8-0.1,11-1.7c1.1-0.6,2.2-1.2,3.1-2c1.1-0.9,2.6-1.3,3.6-2.2c1.9-1.8,3.3-4.2,4.1-6.7
		c0.3-1-0.9-1-1.2-0.2c-0.7,2.6-2.5,4.7-4.7,6.5c0.9-1.4,1.9-2.6,2.6-4.2c0.8-1.7,1.3-3.6,1.7-5.4c0.2-0.9-1.3-0.9-1.5-0.1
		c-0.4,1.8-1,3.6-1.7,5.4c-0.9,2.2-2.6,3.7-3.5,5.9c0,0.1,0,0.1,0,0.2c-1.1,0.7-2.3,1.4-3.5,2c-2.3,1.2-5.8,1.9-8.6,1.5
		c0.1-0.1,0.2-0.1,0.2-0.2c1.9-1.3,5-1.1,7.1-2.2c4.3-2.1,6.8-5.8,8.3-10.3c0.3-0.9-1.2-0.8-1.5-0.1C29.5,45.6,26,49.9,20,50.6
		c-3.6,0.4-5.9,3.4-9,4.9c-0.9,0.4,0,1.3,0.8,0.9c1.3-0.6,2.5-1.5,3.7-2.3C15.5,54.1,15.6,54.2,15.6,54.2z"/>
	<path fill="#6FB073" d="M19,55c-1.2-0.1-2.6,0.1-3.7,0.7c-0.3,0.2-0.6,0.5-0.5,0.9c0.1,0.4,0.5,0.5,0.8,0.3c0.9-0.5,2-0.6,3-0.5
		C19.3,56.5,19.9,55.1,19,55z"/>
	<path fill="#6FB073" d="M1,29.9c3.5-2.5,4.6-6.6,7.4-9.6c2.3-2.4,5.9-3.2,8.9-4.4c0.7-0.3,0.4-1.8-0.4-1.4
		c-2.6,1.1-5.3,1.8-7.6,3.4c-3.9,2.7-4.8,7.8-8.7,10.6C0,28.9,0.3,30.4,1,29.9z"/>
	<path fill="#6FB073" d="M26.1,12.1c-5-1.5-10.8,0.2-15.6,2c-4.2,1.6-8,6-9.8,10c-0.3,0.8,1.2,1,1.5,0.3C6,15.9,20.2,9.6,28.5,14.9
		c7.9,5,9.4,15.3,8.2,23.8c-0.1,0.8,1.4,0.8,1.6,0C39.6,29,37,15.5,26.1,12.1z"/>
	<path fill="#6FB073" d="M22.8,8.7c-2.4-0.5-5.2,0.3-7.8,1c1.2-0.8,2.4-1.4,4.1-1.6c0.7-0.1,1-1.6,0.1-1.5c-2.8,0.3-5.8,2-7.6,4
		c-1.4,1.6-3.5,1.9-5.1,3.1c-1.1,0.8-1.9,1.8-2.7,2.9c-0.5,0.7,0.2,1.7,0.8,0.9c1.7-2.5,4.3-3.3,6.6-4.9c0.4-0.3,0.8-0.6,1.2-0.9
		c2.3-0.4,4.6-0.8,6.8-1.3c4.8-1,9.9,1.7,13.7,4.5c6.7,4.9,8.9,18.8,6.2,26.2c-0.3,1,1,0.9,1.3,0.1c2.7-7.6,0.7-19-4.4-25.3
		C32.9,11.8,27.9,9.6,22.8,8.7z"/>
	<path fill="#6FB073" d="M7.8,11.5c0.5-0.6,1.7-0.8,2.4-1C11,10.3,11,9,10,9.3C8.9,9.6,7.4,10,6.6,10.9C6,11.7,7.3,12.1,7.8,11.5z"
		/>
	<path fill="#6FB073" d="M42.6,20.9c-1.4-3.2-3-5.9-4-9.3c-0.9-3-4-5.7-7-6.7c-3.7-1.2-8.4-3.2-12.3-2.3c-3.4,0.8-6.7,3.2-10.1,4.2
		C8.5,7.1,8.8,8.7,9.6,8.4c2.4-0.8,4.7-1.7,7-2.7C17.4,5.3,18.2,5,19,4.8c2,1,3.9,2.2,6.2,2.7c3.5,0.7,7.4,1.4,9.6,4.5
		c0.5,0.7,1.7-0.3,1.3-0.9c-1.7-2.4-4.7-4-7.6-4.6c-1.8-0.4-3.8-0.4-5.5-1.3c-0.5-0.3-1-0.5-1.4-0.8c1.9,0,3.7,0.5,6.2,1.1
		c3.5,0.9,6,2.2,8.7,4.6c0,0,1.3,3.8,1.6,4.6c0.8,2.3,2.5,4.6,3.5,6.9C42,22.7,42.9,21.7,42.6,20.9z"/>
	<path fill="#6FB073" d="M37,44.6c-0.3,0.6-0.7,1.1-1.1,1.7c-0.5,0.8-1.1,1.9-2,2.5c0,0-0.1,0-0.1,0c-2.3,1.4-4.4,3-6.7,4.4
		c-1.8,1.1-4,1.7-5.9,2.6c-0.9,0.4-0.3,1.4,0.6,1.1c1.9-0.8,3.9-1.5,5.7-2.4c0.4-0.2,0.9-0.5,1.3-0.8c0.1,0,0.1,0,0.2,0.1
		c1.3,0.1,2.9,0.2,4.1-0.2c0.9-0.3-0.1-1.3-0.8-1.1c-0.6,0.2-1.3,0.2-1.9,0.2c1.4-1,2.9-2,4.3-2.9c0.1-0.1,0.2-0.2,0.2-0.2
		c1.4-1.1,2.4-2.9,3.3-4.4C38.8,44.2,37.4,43.9,37,44.6z"/>
	<path fill="#6FB073" d="M19.2,1.9C22.8,1,27.4,2.6,31,3.6c2.3,0.7,4.6,2.4,6.6,3.8c0.6,0.4,1.9-0.3,1.1-0.9
		c-0.4-0.3-0.8-0.5-1.2-0.8c-0.9-1-1.7-2.2-2.4-3.4c-0.4-0.6-1.8-0.2-1.3,0.6c0.2,0.3,0.3,0.5,0.5,0.8c-1-0.5-2-1-3.1-1.3
		c-0.9-0.3-1.9-0.5-2.8-0.8c1-0.2,2-0.3,3.2-0.1c0.7,0.2,1.6-1.1,0.7-1.3c-1.7-0.4-3-0.2-4.7,0.2c-1.5,0.4-4.3,0-5.5,0
		c-1.1,0-2.2,0.1-3.3,0.3C17.7,1,18.3,2.1,19.2,1.9z"/>
</g>
</svg>
