<?xml version="1.0" encoding="utf-8"?>
<!-- Generator: Adobe Illustrator 17.1.0, SVG Export Plug-In . SVG Version: 6.00 Build 0)  -->
<!DOCTYPE svg PUBLIC "-//W3C//DTD SVG 1.1//EN" "http://www.w3.org/Graphics/SVG/1.1/DTD/svg11.dtd">
<svg version="1.1" id="Layer_1" xmlns="http://www.w3.org/2000/svg" xmlns:xlink="http://www.w3.org/1999/xlink" x="0px" y="0px"
	 viewBox="271.2 -0.2 418.7 560.2" enable-background="new 271.2 -0.2 418.7 560.2" xml:space="preserve">
<g>
	<path fill="#3CB370" d="M392.6,406.7c26.5-4.9,45.2-12.8,58.9-36.4c4.9-8.8,11.8-19.6,10.8-30.5c-1-11.8,2.9-22.6,2-33.4
		c0-3.9-4.9-6.9-7.9-3.9c-55,43.2-73.7,129.7-155.2,136.6c-6.9,1-8.8,15.7-1,14.7C336.6,450.9,390.6,407.7,392.6,406.7z
		 M451.5,324.2c-1,4.9-2,9.8-1,16.7c3.9,14.7-18.7,38.3-30.5,44.2c-5.9,2.9-13.8,4.9-20.6,5.9c0,0,0,0,1-1
		C417.1,369.4,432.8,342.9,451.5,324.2z"/>
	<path fill="#3CB370" d="M432.8,423.4c43.2-25.5,53.1-67.8,58.9-114.9c4.9-36.4-27.5-43.2-53.1-21.6
		c-48.1,40.3-78.6,116.9-142.5,133.6c-6.9,2-8.8,16.7,0,14.7c29.5-7.9,55-30.5,74.7-53.1c11.8-12.8,21.6-28.5,32.4-42.2
		c7.9-9.8,16.7-18.7,25.5-28.5c9.8-9.8,56-37.3,51.1,0c-6.9,48.1-22.6,92.4-72.7,110c-32.4,11.8-58.9,33.4-92.4,45.2
		c-6.9,2-7.9,17.7,0,14.7c18.7-6.9,38.3-14.7,55-25.5C390.6,442.1,412.2,436.2,432.8,423.4z"/>
	<path fill="#3CB370" d="M298.2,401.8c33.4-13.8,48.1-43.2,61.9-74.7c18.7-43.2,78.6-119.9,139.5-84.5c56,32.4-1,138.5-33.4,172.9
		c-26.5,28.5-60.9,35.4-94.3,51.1c-8.8,3.9,2.9,12.8,8.8,9.8c49.1-22.6,91.4-34.4,120.8-84.5c25.5-43.2,60.9-108.1,18.7-149.3
		c-36.4-35.4-83.5-19.6-120.8,7.9c-9.8,6.9-18.7,14.7-27.5,24.6c1-1,7.9-30.5,37.3-45.2c28.5-14.7,71.7-26.5,101.2-9.8
		c51.1,28.5,46.2,92.4,23.6,136.6c-3.9,6.9,5.9,16.7,9.8,7.9c29.5-56,25.5-127.7-36.4-161.1c-30.5-16.7-82.5,2.9-110,17.7
		c-19.6,10.8-39.3,50.1-40.3,50.1c-12.8,14.7-24.6,29.5-36.4,45.2c-8.8,11.8-16.7,22.6-27.5,31.4c-8.8,7.9-15.7,14.7-19.6,25.5
		c-2.9,6.9,11.8,10.8,14.7,3.9c5.9-13.8,18.7-21.6,28.5-31.4c7.9-7.9,13.8-17.7,20.6-26.5c4.9-6.9,10.8-13.8,16.7-20.6
		c0,1,1,2,1,2.9c-1,2-2,2.9-2,4.9c-14.7,34.4-23.6,72.7-62.9,88.4C280.6,394.9,291.4,404.8,298.2,401.8z"/>
	<path fill="#3CB370" d="M375.9,307.5c-4.9,4.9-1,19.6,5.9,13.8c14.7-13.8,29.5-26.5,44.2-39.3c16.7-13.8,32.4-24.6,54-15.7
		c7.9,2.9,9.8-11.8,2.9-14.7C441.7,233.8,402.4,282,375.9,307.5z"/>
	<path fill="#3CB370" d="M493.8,273.1L493.8,273.1L493.8,273.1c1,1,1,1,1,2c1,2,2.9,3.9,3.9,5.9c2.9,5.9,4.9,10.8,2.9,16.7
		c-5.9,22.6-4.9,26.5-1,27.5c6.9,2,10.8-21.6,12.8-24.6c5.9-12.8,0-27.5-8.8-38.3C499.6,257.4,488.8,267.2,493.8,273.1L493.8,273.1
		L493.8,273.1z"/>
	<path fill="#3CB370" d="M453.5,478.5c1,0,1-1,2-1c100.2,15.7,163.1-185.7,113-252.5c-28.5-38.3-61.9-57-101.2-57
		c27.5-12.8,57-3.9,83.5,13.8c48.1,32.4,70.7,117.9,51.1,170.9c-2.9,8.8,7.9,11.8,10.8,2.9c21.6-58.9-2-141.5-48.1-181.8
		c-34.4-30.5-83.5-39.3-119.9-6.9c-1,1-1,2-2,2.9c-9.8,2-19.6,3.9-30.5,7.9c-71.7,23.6-84.5,105.1-137.5,146.4
		c-6.9,4.9-2.9,16.7,4.9,10.8c61.9-48.1,70.7-134.6,161.1-152.3c190.6-37.3,141.5,268.2,34.4,281c25.5-19.6,46.2-50.1,58-78.6
		c3.9-8.8-6.9-13.8-10.8-4.9c-18.7,44.2-53.1,78.6-98.2,94.3c-31.4,10.8-65.8,4.9-96.3,17.7c-6.9,2.9-5.9,16.7,2.9,12.8
		c19.6-8.8,42.2-5.9,63.9-8.8C415.2,494.2,434.8,487.3,453.5,478.5z"/>
	<path fill="#3CB370" d="M404.4,519.7c7.9-2.9,7.9-14.7-2-11.8c-15.7,5.9-33.4,4.9-49.1,10.8c-7.9,2.9-7.9,14.7,2,11.8
		c7.9-2.9,16.7-2.9,24.6-3.9C387.6,525.6,396.5,522.7,404.4,519.7z"/>
	<path fill="#3CB370" d="M424,532.5c33.4,9.8,76.6-1,108.1-16.7c10.8-5.9,21.6-11.8,30.5-19.6c10.8-8.8,25.5-12.8,35.4-21.6
		c18.7-17.7,32.4-41.3,40.3-65.8c2.9-9.8-8.8-9.8-11.8-2c-6.9,25.5-24.6,46.2-46.2,63.9c8.8-13.8,18.7-25.5,25.5-41.3
		c7.9-16.7,12.8-35.4,16.7-53.1c2-8.8-12.8-8.8-14.7-1c-3.9,17.7-9.8,35.4-16.7,53.1c-8.8,21.6-25.5,36.4-34.4,58c0,1,0,1,0,2
		c-10.8,6.9-22.6,13.8-34.4,19.6c-22.6,11.8-57,18.7-84.5,14.7c1-1,2-1,2-2c18.7-12.8,49.1-10.8,69.8-21.6
		c42.2-20.6,66.8-57,81.5-101.2c2.9-8.8-11.8-7.9-14.7-1c-15.7,51.1-50.1,93.3-109.1,100.2c-35.4,3.9-58,33.4-88.4,48.1
		c-8.8,3.9,0,12.8,7.9,8.8c12.8-5.9,24.6-14.7,36.4-22.6C423,531.5,424,532.5,424,532.5z"/>
	<path fill="#3CB370" d="M457.4,540.4c-11.8-1-25.5,1-36.4,6.9c-2.9,2-5.9,4.9-4.9,8.8c1,3.9,4.9,4.9,7.9,2.9
		c8.8-4.9,19.6-5.9,29.5-4.9C460.4,555.1,466.2,541.3,457.4,540.4z"/>
	<path fill="#3CB370" d="M280.6,293.8c34.4-24.6,45.2-64.8,72.7-94.3c22.6-23.6,58-31.4,87.4-43.2c6.9-2.9,3.9-17.7-3.9-13.8
		c-25.5,10.8-52.1,17.7-74.7,33.4c-38.3,26.5-47.2,76.6-85.5,104.1C270.7,283.9,273.7,298.7,280.6,293.8z"/>
	<path fill="#3CB370" d="M527.2,118.9c-49.1-14.7-106.1,2-153.3,19.6c-41.3,15.7-78.6,58.9-96.3,98.2c-2.9,7.9,11.8,9.8,14.7,2.9
		c37.3-83.5,176.8-145.4,258.4-93.3c77.6,49.1,92.4,150.3,80.6,233.8c-1,7.9,13.8,7.9,15.7,0C659.8,284.9,634.2,152.3,527.2,118.9z"
		/>
	<path fill="#3CB370" d="M494.7,85.5c-23.6-4.9-51.1,2.9-76.6,9.8c11.8-7.9,23.6-13.8,40.3-15.7c6.9-1,9.8-15.7,1-14.7
		c-27.5,2.9-57,19.6-74.7,39.3c-13.8,15.7-34.4,18.7-50.1,30.5c-10.8,7.9-18.7,17.7-26.5,28.5c-4.9,6.9,2,16.7,7.9,8.8
		c16.7-24.6,42.2-32.4,64.8-48.1c3.9-2.9,7.9-5.9,11.8-8.8c22.6-3.9,45.2-7.9,66.8-12.8c47.2-9.8,97.3,16.7,134.6,44.2
		c65.8,48.1,87.4,184.7,60.9,257.4c-2.9,9.8,9.8,8.8,12.8,1c26.5-74.7,6.9-186.7-43.2-248.6C594,115.9,544.8,94.3,494.7,85.5z"/>
	<path fill="#3CB370" d="M347.4,113c4.9-5.9,16.7-7.9,23.6-9.8c7.9-2,7.9-14.7-2-11.8c-10.8,2.9-25.5,6.9-33.4,15.7
		C329.7,114.9,342.5,118.9,347.4,113z"/>
	<path fill="#3CB370" d="M689.3,205.3c-13.8-31.4-29.5-58-39.3-91.4c-8.8-29.5-39.3-56-68.8-65.8c-36.4-11.8-82.5-31.4-120.8-22.6
		c-33.4,7.9-65.8,31.4-99.2,41.3c-6.9,2.9-3.9,18.7,3.9,15.7c23.6-7.9,46.2-16.7,68.8-26.5c7.9-3.9,15.7-6.9,23.6-8.8
		c19.6,9.8,38.3,21.6,60.9,26.5c34.4,6.9,72.7,13.8,94.3,44.2c4.9,6.9,16.7-2.9,12.8-8.8c-16.7-23.6-46.2-39.3-74.7-45.2
		c-17.7-3.9-37.3-3.9-54-12.8c-4.9-2.9-9.8-4.9-13.8-7.9c18.7,0,36.4,4.9,60.9,10.8c34.4,8.8,58.9,21.6,85.5,45.2
		c0,0,12.8,37.3,15.7,45.2c7.9,22.6,24.6,45.2,34.4,67.8C683.4,223,692.2,213.2,689.3,205.3z"/>
	<path fill="#3CB370" d="M634.2,438.2c-2.9,5.9-6.9,10.8-10.8,16.7c-4.9,7.9-10.8,18.7-19.6,24.6h-1c-22.6,13.8-43.2,29.5-65.8,43.2
		c-17.7,10.8-39.3,16.7-58,25.5c-8.8,3.9-2.9,13.8,5.9,10.8c18.7-7.9,38.3-14.7,56-23.6c3.9-2,8.8-4.9,12.8-7.9c1,0,1,0,2,1
		c12.8,1,28.5,2,40.3-2c8.8-2.9-1-12.8-7.9-10.8c-5.9,2-12.8,2-18.7,2c13.8-9.8,28.5-19.6,42.2-28.5c1-1,2-2,2-2
		c13.8-10.8,23.6-28.5,32.4-43.2C651.9,434.2,638.2,431.3,634.2,438.2z"/>
	<path fill="#3CB370" d="M459.4,18.7c35.4-8.8,80.6,6.9,115.9,16.7c22.6,6.9,45.2,23.6,64.8,37.3c5.9,3.9,18.7-2.9,10.8-8.8
		C647,61,643,59,639.1,56c-8.8-9.8-16.7-21.6-23.6-33.4c-3.9-5.9-17.7-2-12.8,5.9c2,2.9,2.9,4.9,4.9,7.9
		c-9.8-4.9-19.6-9.8-30.5-12.8c-8.8-2.9-18.7-4.9-27.5-7.9c9.8-2,19.6-2.9,31.4-1c6.9,2,15.7-10.8,6.9-12.8c-16.7-3.9-29.5-2-46.2,2
		c-14.7,3.9-42.2,0-54,0c-10.8,0-21.6,1-32.4,2.9C444.6,9.8,450.5,20.6,459.4,18.7z"/>
</g>
</svg>
