<?xml version="1.0" encoding="utf-8"?>
<!-- Generator: Adobe Illustrator 17.1.0, SVG Export Plug-In . SVG Version: 6.00 Build 0)  -->
<!DOCTYPE svg PUBLIC "-//W3C//DTD SVG 1.1//EN" "http://www.w3.org/Graphics/SVG/1.1/DTD/svg11.dtd">
<svg version="1.1" id="Layer_1" xmlns="http://www.w3.org/2000/svg" xmlns:xlink="http://www.w3.org/1999/xlink" x="0px" y="0px"
	 viewBox="0 0 50.4 50.4" enable-background="new 0 0 50.4 50.4" xml:space="preserve">
<g>
	<path fill="#F3D131" d="M25.2,0C11.3,0,0,11.3,0,25.2c0,13.9,11.3,25.2,25.2,25.2c13.9,0,25.2-11.3,25.2-25.2
		C50.4,11.3,39.1,0,25.2,0z M31.3,14.3c1.7,0,3,1.4,3,3c0,1.7-1.4,3-3,3s-3-1.4-3-3C28.2,15.6,29.6,14.3,31.3,14.3z M18.7,14.3
		c1.7,0,3,1.4,3,3c0,1.7-1.4,3-3,3c-1.7,0-3-1.4-3-3C15.6,15.6,17,14.3,18.7,14.3z M42.3,27.8c-1.7,8.1-8.9,14-17.2,14
		c-8.2,0-15.2-5.5-17.1-13.5c-0.2-0.8,0.3-1.6,1.1-1.8c0.8-0.2,1.6,0.3,1.8,1.1c1.6,6.6,7.4,11.1,14.1,11.1C32,38.8,38,34,39.4,27.2
		c0.2-0.8,1-1.3,1.8-1.2C42,26.2,42.5,27,42.3,27.8z"/>
</g>
</svg>
