<?xml version="1.0" encoding="utf-8"?>
<!-- Generator: Adobe Illustrator 17.1.0, SVG Export Plug-In . SVG Version: 6.00 Build 0)  -->
<!DOCTYPE svg PUBLIC "-//W3C//DTD SVG 1.1//EN" "http://www.w3.org/Graphics/SVG/1.1/DTD/svg11.dtd">
<svg version="1.1" id="Layer_1" xmlns="http://www.w3.org/2000/svg" xmlns:xlink="http://www.w3.org/1999/xlink" x="0px" y="0px"
	 viewBox="175.6 0 608.8 560" enable-background="new 175.6 0 608.8 560" xml:space="preserve">
<g>
	<polygon fill="#FB7754" points="357.5,372.6 384.1,237.3 287.6,138.6 425.1,122 489.4,0 547.1,125.3 683.5,148.6 581.5,241.7 
		602.5,378.1 481.7,311.6 	"/>
	<polygon fill="#FB7754" points="567,512.3 578.1,455.8 537.1,414.7 594.8,407 621.4,356 645.8,409.2 702.3,418.1 660.2,458 
		669.1,514.5 618.1,486.8 	"/>
	<polygon fill="#FB7754" points="287.6,512.3 298.7,455.8 257.7,414.7 315.3,407 341.9,356 366.3,409.2 422.9,418.1 380.8,458 
		389.6,514.5 338.6,486.8 	"/>
	<polygon fill="#FB7754" points="425.1,557.8 436.2,501.2 396.3,460.2 452.8,453.5 480.6,402.5 503.8,454.7 561.5,463.5 
		519.4,503.4 527.1,560 477.2,532.3 	"/>
	<polygon fill="#FB7754" points="204.4,375.9 215.5,319.4 175.6,278.3 233.3,271.7 259.9,220.7 283.2,272.8 340.8,282.8 
		298.7,321.6 306.5,378.1 256.6,350.4 	"/>
	<polygon fill="#FB7754" points="649.1,375.9 660.2,319.4 620.3,278.3 676.8,271.7 703.4,220.7 727.8,272.8 784.4,282.8 
		742.3,321.6 751.1,378.1 701.2,350.4 	"/>
</g>
</svg>
