<?xml version="1.0" encoding="utf-8"?>
<!-- Generator: Adobe Illustrator 17.1.0, SVG Export Plug-In . SVG Version: 6.00 Build 0)  -->
<!DOCTYPE svg PUBLIC "-//W3C//DTD SVG 1.1//EN" "http://www.w3.org/Graphics/SVG/1.1/DTD/svg11.dtd">
<svg version="1.1" id="Layer_1" xmlns="http://www.w3.org/2000/svg" xmlns:xlink="http://www.w3.org/1999/xlink" x="0px" y="0px"
	 viewBox="0 0 54.9 50.5" enable-background="new 0 0 54.9 50.5" xml:space="preserve">
<g>
	<polygon fill="#DE7656" points="16.4,33.6 18.8,21.4 10.1,12.5 22.5,11 28.3,0 33.5,11.3 45.8,13.4 36.6,21.8 38.5,34.1 27.6,28.1 
			"/>
	<polygon fill="#DE7656" points="35.3,46.2 36.3,41.1 32.6,37.4 37.8,36.7 40.2,32.1 42.4,36.9 47.5,37.7 43.7,41.3 44.5,46.4 
		39.9,43.9 	"/>
	<polygon fill="#DE7656" points="10.1,46.2 11.1,41.1 7.4,37.4 12.6,36.7 15,32.1 17.2,36.9 22.3,37.7 18.5,41.3 19.3,46.4 
		14.7,43.9 	"/>
	<polygon fill="#DE7656" points="22.5,50.3 23.5,45.2 19.9,41.5 25,40.9 27.5,36.3 29.6,41 34.8,41.8 31,45.4 31.7,50.5 27.2,48 	
		"/>
	<polygon fill="#DE7656" points="2.6,33.9 3.6,28.8 0,25.1 5.2,24.5 7.6,19.9 9.7,24.6 14.9,25.5 11.1,29 11.8,34.1 7.3,31.6 	"/>
	<polygon fill="#DE7656" points="42.7,33.9 43.7,28.8 40.1,25.1 45.2,24.5 47.6,19.9 49.8,24.6 54.9,25.5 51.1,29 51.9,34.1 
		47.4,31.6 	"/>
</g>
</svg>
