<?xml version="1.0" encoding="utf-8"?>
<!-- Generator: Adobe Illustrator 17.1.0, SVG Export Plug-In . SVG Version: 6.00 Build 0)  -->
<!DOCTYPE svg PUBLIC "-//W3C//DTD SVG 1.1//EN" "http://www.w3.org/Graphics/SVG/1.1/DTD/svg11.dtd">
<svg version="1.1" id="Layer_1" xmlns="http://www.w3.org/2000/svg" xmlns:xlink="http://www.w3.org/1999/xlink" x="0px" y="0px"
	 viewBox="0 0 218 212.9" enable-background="new 0 0 218 212.9" xml:space="preserve">
<g>
	<g>
		<path fill="#FFD100" d="M218,106.4c0,7.8-14.7,13.9-16.4,21.2c-1.7,7.5,8.9,19.4,5.6,26.2c-3.3,6.9-19.2,6-23.9,11.9
			c-4.8,6-0.3,21.2-6.3,26c-5.9,4.7-19.8-2.9-26.7,0.4c-6.8,3.3-9.4,19-17,20.7c-7.3,1.7-16.5-11.3-24.3-11.3
			c-7.8,0-17,12.9-24.3,11.3c-7.5-1.7-10.2-17.4-17-20.7c-6.9-3.3-20.8,4.3-26.7-0.4c-6-4.8-1.6-20-6.3-26
			c-4.7-5.9-20.6-5-23.9-11.9c-3.3-6.8,7.3-18.6,5.6-26.2C14.7,120.3,0,114.2,0,106.4s14.7-13.9,16.4-21.2
			c1.7-7.5-8.9-19.4-5.6-26.2c3.3-6.9,19.2-6,23.9-11.9c4.8-6,0.3-21.2,6.3-26c5.9-4.7,19.8,2.9,26.7-0.4c6.8-3.3,9.4-19,17-20.7
			C92-1.5,101.2,11.4,109,11.4c7.8,0,17-12.9,24.3-11.3c7.5,1.7,10.2,17.4,17,20.7c6.9,3.3,20.8-4.3,26.7,0.4c6,4.8,1.6,20,6.3,26
			c4.7,5.9,20.6,5,23.9,11.9c3.3,6.8-7.3,18.6-5.6,26.2C203.3,92.6,218,98.6,218,106.4z"/>
	</g>
</g>
</svg>
